<svg xmlns="http://www.w3.org/2000/svg" viewBox="0 0 165.9 168">
  <style type="text/css">.cls-0 {fill:#0D171C;}
.cls-1 {fill:#0A141B;}
.cls-2 {fill:#FFFFFF;}</style>
  <path class="cls-0" d="m129.7 7.5h-94.1c-15.3 0-28.2 12.3-28.2 27.5v98c0 15.9 10.9 27.9 28.2 28h94.1c16.8 0 28.6-12 28.7-27.4v-98.6c-0.1-14.4-11.5-27.5-28.7-27.5z"/>
  <path class="cls-1" d="m134.2 17.5-1.8 0.5-0.9 4-2.5 0.8 0.2 2.2-0.5 1.6c-0.1 0.8 3.4 2.8 3.2 3.4-0.5 2-4.2 2.3-4.2 2.3l-4.2-2.3 0.1-2.4 2.3-0.6 2-1.9-0.7-3.1-0.6 1.1-1.9 1.3-2.6 0.9c0-1.1-1-2.3-3.1-2.2l-1.7 1.9-3.4-3.5-5.6 0.5c-0.5 0.5 0.6 1.4 0.2 1.8l-2.3 3.1-3.1 1-0.6-1 0.9-4.3-1-1.5 4.1-1-2.6-5.6-9.9 2.9-1 1.6-4.5 0.9-6.5-1.8-5.7 2-0.3-2-3.9 1.9 1.1 2.9-1.3 1.7 1.4 1.2-0.1 0.2-0.3 1.4 1.7 1.9v1.4l-1.7 0.9-1.7 0.3-1.6-1.2-3.9 1.6-1.5-1.1 0.9-1.4-4.1-1.8 4.1-2-3.1-1.7-2.4 2.9-2.5 0.2-1.1 3.2 1.3 2.7-4 2 6.6-1.9 2.9-0.6 1 3.2c0.1-0.4 10.3-2.7 10.8-3l0.1-1.7 6.1-3.3-0.6 5.8-0.8 0.9 2.1 3.3-0.6 3.8-5.3-4.2 1 2.4 4.2 2.4-0.5 5.3 1.6 3.3-5.8-6.6-2.1-1.4-1 1 2.5 5.4 2.7 2.5 2.8 4.1 4.3 0.1 1.3-0.8-1.5-9.3-1.7-5.9c0.6-1.6 3.8-4.3 5.8-4.1l6.2 0.6c1.1 0.1 3.2 3.4 5.7 3l2.9-3.2-1.5-3.8 1.9-2.7 2.6-1.3 1.9 0.8 7-0.5 2.6-4 3.8-0.9 0.2 4.1-1.1 2.5-0.4 0.4 0.8 1-0.4 4.8 0.7 7.2-1.1 5.3 4.2 1.7-0.2-4-0.8-3.5 1-2.5-0.3-3.2-3.3-1.2 2.8-1 0.7-2 2.9-1.2 2 2.7-2.1 1.8-1 3.2 2.3-1.5 2 1.2 4-5.3 1.9-2.5-0.2 7-2.8-0.5-2.7 1.9 6.8 1.2-0.1 3.5-2.1 0.5-1.1 2.8 3 3 2 0.2c0.6-0.6 3.2-2 4.2-1.8l3 2.2-1.5 2.9-4.1-2.3-4-0.5-0.4 5.5-3.9 3.8-2.1 1 1-6.3-1.5 7 4 5.9-0.7 0.1-1.7 1 0.2 3.5 2.6 1.4-1.9 0.4-3.5-0.3 1 0.8h-0.6l-3.8 0.2-0.3 0.3 2.7 3.7 4.9 1.8h1.9l0.6-2.5 2.7-0.4 1.9 1.9-8.5 5-0.9 0.1 1.3 3.1 3.5 1.3 0.1 5.6 2.9-2 3.1-0.9 0.8-3.2 3 0.2 2.6 0.8 2-2 2.5-5.3v-15.2l-1-3.4-3.1 4-4.8 1.6c-0.7 0.3-2.6-0.5-2.6-0.5l-1.4-3.1-1.1-2 4.1-1.4-4.5-2 0.4-2 2.6-1.6h-4.5l3.9-1.4 5.1 0.9 0.4 2.5 2 0.4 2.9-3.3 1.6 1.9 0.1-11-3.5-0.1-0.6-2.9 3-2-0.4-3.1-3-2.7-4.6-4.7-2.5-0.5-4.6 2.5c0.3 0.6 0.6 4.4 0.6 4.4l2.4-1.8 2.1 0.9 1.5 1.1-2 4.5-1.1-0.2 0.6-2.8h-3.1v2l0.5 2.5-6.3-1.5-2.6-0.5 0.6 1.4 2.4 1.5 0.4 2c-0.8 0.1-5.4 2.1-6.4 1l0.4-4.9 2.5-0.6c-0.3-0.5-1.3-3.4-1.9-4.1m-81.9-16.6c-0.5 2.1-2.9 0.8-3-0.8s-3.9-1-4-2.5l1-4.5 2 0.1 0.3 1.5 8-0.1 2-0.6 3.5 1.2 1.1 2 3.5 0.9c-1.1 2.4-4.6 0.9-5.6 1l-2.9 0.5-3-0.5-2.9 1.8zm4.9 10.3-2.5 0.4v-2.1l1-1 1.5 2.7zm-5.4 1.4h-1.6l-3-3.5 1-2 1.6 2.5 1.9 1.1 0.1 1.9zm-20.1-10.5 2.4 1.6h1.1l3.4-3h1.6l3.4 0.9-2.3 1.9h-3.1l-2.9 3.7 2.9 3.8 7.1 1.1-1.1 2 0.5 2 3.5 1.6h0.6l2.5-1.6h1.3l2.1 2.4 1.5-3.5 1.1-0.9 3.4 0.4-1 2.1 0.9 2.5-0.5 3-3.5 3.9-2.8 0.1 0.4-4.5 1.5-1.5-4.1-0.5-5 1.1-6.8-3.6v-5.6l-8.1 0.1 1.1-4.4-3-2.1-0.1-2.6-1.9-0.4c0.8-2 3.3-0.9 3.9 0zm-4.9 8.5 3.5-0.5 0.5 1.4-3.1 0.6-0.9-1.5zm64.5-6.4 1.9-0.1 0.1 4.6 4.9-0.6 2.5 3c0.5 1 3.5 0.9 3.5 0.9l-0.6-3.5 2.7-0.3-2 4 0.3 0.5 2.1-1.6 1-1.1 1.5 2-1 0.6-6.1-0.4m-73.8 8.4 0.3-5 3.2-1.5 1.9 1.5v-1.5l2.9-1 0.2 1 1.3 0.9c-0.9 0.6-4.3 1.2-4.4 2.1h3.6l0.3 1.9-1.9 1 2.5 0.5 2.4-0.4v4h-5.8l-0.1-0.9 2-1.1-2.4-0.4-1.7 1.4-2.4-1.5-0.5 1.9-2.5 1.1-5.5-1.1 1-4.5 2.1-0.9-0.5 2.5h4zm-0.6 5 0.6 3.4c-1.5 1.5-3.6 2.1-6 0.5l-1.5-1.4 5.4-2.5h1.5z"/>
  <path class="cls-1" d="m62.5 18.1 0.1-1.2 1.8 0.7-1.9 0.5z"/>
  <path class="cls-1" d="m67.9 23 1.1-1.5 1.5 1.6-2.6-0.1z"/>
  <path class="cls-1" d="m75 28c1-1.9 4.9-1.9 6.4-1.9l1 0.8v1.6l-1.4 1.4-0.5-1.9h-5.5z"/>
  <path class="cls-1" d="m82 31.5 4.5-0.9v0.5l-4.5 0.4z"/>
  <path class="cls-1" d="m109.1 30.4h3.5l3.5 4.1-4.2 0.6 1.6-2.1-1-1-3 0.6-0.4-2.2z"/>
  <path class="cls-1" d="m105.1 33.6-0.5 0.3-1.1-0.5 0.6-1.9 1 2.1z"/>
  <path class="cls-1" d="m124 16.6 1-0.2 0.6 1.1-1.6-0.9z"/>
  <path class="cls-1" d="m109.9 21 3-3.6 3.7 1.1-1.5 0.5-1 1.6-4.2 0.4z"/>
  <path class="cls-1" d="m44.1 18.6 0.8-1.1 2.1 0.5-1 1-1.9-0.4z"/>
  <path class="cls-1" d="m51.1 18 0.3-1 1.1 1h-1.4z"/>
  <path class="cls-1" d="m51.5 31.1 1-1.1 0.9 0.9-0.5 1.6-1.4-1.4z"/>
  <path class="cls-1" d="m66.1 33.4 0.8-0.5 1 0.2-1.8 0.3z"/>
  <path class="cls-1" d="m103.5 37.1 1-2.6 2.6 1.4-3.1 2.1-0.5-0.9z"/>
  <path class="cls-1" d="m137 38 1-3.6 1.6 1v1.5l-2.6 1.1z"/>
  <path class="cls-1" d="m153 47.6-3.6 0.3-0.3-2.9 2.9-2 1 4.6z"/>
  <path class="cls-1" d="m10.1 51h0.8l1.6 2.4 1 0.5 0.6-1.9 1.5 3 1.5-0.5 2.4 0.5 3.5-3.6-0.5 2.5 5-2.9 3.4-3h2.6l-3.6 3.1-0.5 3.8-6.4-1.8-0.9 1.9-5 3-4-1h-3l-2.6-0.5 2.6-5.5z"/>
  <path class="cls-1" d="m44.1 47.9c0.3 0.7 1 3 0 3.1l-2.6-0.6 1.6-2.5h1z"/>
  <path class="cls-1" d="m36.5 47.6 5.5-2.2 5.5 0.6-0.9 0.9-6.6 0.1-1 3-2.5-2.4z"/>
  <path class="cls-1" d="m11.1 69.6 1.9-1.6 0.9-6.6-0.9-2.5 1.9-1.3-1.3 2.5 0.5 1.9-1 5-2 2.6z"/>
  <path class="cls-1" d="m56 54.6 1.6-7.5 1.4 1-1 3.8-2 2.7z"/>
  <path class="cls-1" d="m37 55 2.9-1.4 0.5-3.6 0.7 3-1.1 1.9-2.5 2.6-0.5-2.5z"/>
  <path class="cls-1" d="m27 57.5 2-0.9 0.4 3.3-2.3 1-0.1-3.4z"/>
  <path class="cls-1" d="m28 63.9 1.9-1.4 2 2.6-0.4 3 1.9 0.9-0.4 5-3 2 0.4-2.5-2.4-1 0.6-6.9-1.1-0.5 0.5-1.2z"/>
  <path class="cls-1" d="m23.5 68 2.1-2.4-0.7 3.4-2.4 1.6-1.5-1.6 2.5-1z"/>
  <path class="cls-1" d="m121 67 3.4-2 0.6 4.9-3 1.1-1-4z"/>
  <path class="cls-1" d="m13.4 81 1-4-0.8-3.4 1.4 0.4 0.4 3.5 2 0.6 1.6-2.1 0.1-4 1 6-0.1 5.5-3.1-1-3.5-1.5z"/>
  <path class="cls-1" d="m12.9 87.1 4.5-1.1 1.2-1 0.8 1 0.7 2-1.5 0.4-0.6-2-4.5 1.2-0.6-0.5z"/>
  <path class="cls-1" d="m15.1 94 0.3-0.5-4.4-3.5-3-1.1v30.1l3.9-2 2.2 0.5-1.2 3.6 1 1.8-0.4 7.7 6.5-0.5-1 4.9-3.1 0.9-0.3 3-3.5 0.1 0.5-3-2-1.4-1.6 2.4-0.1-4-0.5 1.5v-44.5l3-0.9 4.6 3.4-0.9 1.5z"/>
  <path class="cls-1" d="m20.1 95 0.5-2.5 2.9-2.6 0.5 1-1.4 1.1-2.5 3z"/>
  <path class="cls-1" d="m21.5 135.6c3.1 0.8 2.4 3.9 4 4.4l2 1.5 1.6 2.5 1.4-0.4-0.5 1.4-3.9 0.5v-1.6l-1 0.1 1.5 4 2.4 3.1 0.9-1.1-1.9-3.5 3-0.5 3.1 1 2.8 1.5 1-0.6 1.1-3 1-0.9 1.6 3.9-0.1 4.1c-2.5 1.4-3.9-0.6-5.6 0l0.1 3.6-3.5-2.1-0.5-2.5 3.6 1-0.6-2c-3.9 0.4-1.5-2-3.5-3l-3.6 2.4-3.3 5.1-4.6-2.5 3-1 0.4-3-2.4-3.1-3-8 2-0.4 0.1-0.9z"/>
  <path class="cls-1" d="m35 150 2-0.9 1-0.7 2 0.6-0.1 3-1.9-0.4-3-1.6z"/>
  <path class="cls-2" d="m105.9 79.4c-1-3.5-4.5-8.5-4.5-8.5s0.6-2.9 0.4-3.8c-0.3-0.7-3.2-4.3-3.2-4.3 1.9-6.2 1.3-10.7-1.7-17.9-1.5-2.8-4.9-7-6.5-8.3-1.5-1-2.8-0.1-3.4 0.3-2.6 1.7-3.1 4-2.6 6.7 0.5 3.4 3.2 7.4 3.1 12.8-1.9-0.8-5.1-0.3-5.9 0-0.5-0.4-7-6.9-7.5-8.3-0.6-1.2-1.2-4.1-2-5.1-2.6-2.5-8.1-6.1-9.1-5.5-1 0.5-0.9 2.5 0 7.5 1 4 2.6 6.1 4.4 9.1l3.5 5.4 0.1 0.9c-1.4 1.5-8 5.7-9.1 8.1l-0.4 2.6-13.9 12.5c-1.1 1.3-1.5 2.8-0.5 4.9l-0.4 3.6c-0.1 4.4 1.4 5.4 3.9 5.8 1.4 2.1 2.9 3.5 8 2.7 4.3-0.5 6-1.5 8.9-2.7h13.4c5 0 8.2-1.9 12.5-7.9-2.5 8.5-7.5 11.5-17.4 11.1l5.5 31.3h37.1l-12.7-53z"/>
  <path class="cls-1" d="m74.6 78c2.9-3.5 4.4-4 7.4-3.9h5.2c-1.1 3.8-3.3 5.8-7.3 4.4-2.5-1-3.9-0.5-5.3-0.5z"/>
  <path class="cls-1" d="m71.5 151.6 0.6 2.4 3 0.9 5.9-0.9 0.6-3-7-1.1-3.1 1.7zm77.4-52.6-0.4 0.5 0.1-0.4-0.1 2.9 3.5 2.5-2 3.6 2.9 6.5-5 6-2.8 0.8-0.2 2.7 1.7 1.5v7.4l-2.6 2-2.1-0.6v1.2l-4 1.4-2.5 0.4-0.4 1.6-2.4-0.1-1.1 1.1-6.1 2-0.4 2-1-2-1.6-1-0.4 3-3.4 1-3.1-1.5 0.5 2 3.5 2.5 1.6-0.4-0.1-2.1 2.9-0.5 1.2 2.4 2.9-1.3 2.1-2.7 7.9-1.9-2 2.5 4 1.9 3.1-1.3-2 4.9 1.4-0.5 5.5-2.6 1.6 4.7 2.5-3.6v-17.5l0.8-2 1.7 1v-36l-2.6 3.1-1.1-3 1.1-3-2.1-1.1-1.5 2-1 1.5-1.4-1.5-4.1 1-2.4-0.5-3.4 4.5 4 1 5 3-0.5 5h4.9l1.9 2.5-2.8 2.1 0.5 4-3.6 3-1.5 2.9-1.4 0.5-0.1-2-0.5-1-1-0.5-2.6 0.5-0.8-0.5-2 1.5-1.7-1 0.5-1.4 4.2-2 4.3 1.5 2.2-3-1.1-3.6 1.5-2.5-3-1 0.1-2.9 2.4-1-7.5 1.5-0.1-1.1 2.5-2.5h9zm-0.4 0.4 3.5-0.3v2.9h-3.5v-2.6zm-43.5 39.1 7.1-1 2.4 4-7.5 2-2.1-1.9 0.1-3.1zm6 9.5 2.5 1.9-2 1.7-0.5 2.9 2.4 0.1 2.6-4.1h1.4l1.2 0.6 1.4-1.1-1.1-1.4-3.3-1.5-3.1-0.1-1.5 1zm24 1 1.1 0.1 0.5 2.5-2 0.4 0.4-3zm-75.9 1 1.8 1.6-0.9 1.9-2.9 1.1-1.7-3h-2.4l-2 3.4h-6l-3.5-3 0.4-3 5.7-4 2.4 2 4.1-0.5 2.4 2.4 2.6-1.9 2.5 1-2.5 2zm-5.2-8 0.2 2.6 2.4-0.1 0.4-1 0.7-2.5-1.1-0.6-2.6 1.6zm5 1 0.1 1 2.6 0.6v-1.7l-2.7 0.1zm3.2 4.6 2.5 2.8 2 0.6 2.9-1.6 4.4 0.1 1.7 0.4-0.6-4.8 1.5-1.6-2.5-0.5 1.4-4-2.8 1-2.2 3 0.6-2.9-2.9-1.7 2.3-3.8 1.7-0.6 1.8 1.6 2-0.6-0.4-2.9-2.9 0.9-7.2-3.4 0.1-2 4-0.6 2.5 0.9c1.4-0.4 0.9-3-1-3.9l-3.4-4.5-1.7 3-1.3-0.4 2.4-2.1-2.5-3 2.4-2 0.2-2-1.2-1.1h-4.4l3.4 2.7-3.4 1.9 2.4 6-2.9 1.1-2.1-0.7 1.5 4.6-1.5 1.1 5.5 6.3 0.1 0.2h0.6l0.5-2.5 1 1.4-1.7 2.5-0.4 1.5-3 3 0.6 6.6zm-19.5-7.6-3.1 2.5 3.5 2.5 2.6-1.5 0.4-2.1-2-0.8-1.4-0.6zm-8.7 1 2.7-2.1 4.5 0.1 1.5 1-1.5 2.6-2 1.9-3.6-1.5-1.6-2zm-4.5-4 3.6 1.4 2.1-0.5 5 0.1 3 1.9-0.1-2.9-2-2-1-0.6 0.4-1.5 2.6-1.5 0.6-2.4-5.6 2.4-7.1 3-1.5 2.6zm-6.3-6.9 1 4.4 4-1v-3.5l-5 0.1zm-2.5-1.6 0.4 1.6 1-0.5v-2l-1.4 0.9zm-7.1 1.4-0.5 2.7 3.1 2.4 3.4 0.1 0.5-3.2-0.5-1.9-6-0.1zm0.5-7.4 1 2.6 2 2.9 3.9-1h2l0.1-1h-2.9l3-2-3.1-3-4.1-1-1.9 2.5zm9.5-3.6 3 5.2 2.5 0.5 4.5-3.6 1.4-0.1 0.1 1.2-3 2.9 2.4 2-0.3 2.5 4.4 0.5-0.5 3.1-1-0.1 0.1 0.9 2-1 0.9-2.5-3.4-4.4 1.5-1.4v-1.1l4.5 4.1 4.4-2.5 1.6 3.9-3.7 1.9 1.2 4.2 1.8-0.5 2.2-1.1-0.5 1.5 1.5 2-1.1 1-1 1.4v1l1 0.5 1-0.9-0.5-2 4.4-0.5 3.5 0.6 0.6-1.1-0.9-3-5.1-1-4.9-3 1.9-3.1-1-1.9-0.5-2.1 0.9-1.8 0.2-0.1 4.4 1.9 2.9 0.6 2.1 0.5-0.6-3-1.8 1-0.1-2.5 1.4-1.5-1-3.5-1.9 0.6-1.4-2.1 0.4-2.6 1-0.4 4 0.6-2.4 1.9 1.9 2.1 0.5-5.2-2.9-0.4-1.1-1.5 1.1-0.6 2.9 0.6v-0.5l-1.6-0.4-2.8 0.4-2.5 2.6-1-0.6-0.1-0.5-0.9-0.5-2 2.1 1.3 2.4-0.4 1.6-1.5 2.3-2.9-1.8 1.4-1.1-1.4-1-2.2 3.6-1.4-0.5 0.4 7.4-3.3 0.5-0.1-0.5 1.1-2-2.6-0.9-2-0.1-2-2.5 0.6-4.5-1.6-0.1 2.9-0.9 0.2-4-5.6 1-0.1 2 3 1 0.5 5-2.9-0.4-3 2.4-0.1-2.5-1.4 0.1-1.5 2.3zm7-18.3 2-1.5 4.5 0.3v-2.3l3-1.1 3.6 2.6 1.4-0.6-2.9-3.6 1.4-2-3-0.4-2 1.5-1.5-1-3.5 2.6-2.5-1.1-1-2.1-3-0.5 2.4 3.6-5.9 1v3.5l3.4-3.6 1.1 1.1-3 3-1 3.1 2.5 1.3 4-3.8zm-18.1 0.4-2.3 0.5-0.7 1.5 2.7 2 1.9 0.6-1.5 4.4 3.5 4 0.4 2.5-2.9 0.5 0.9 4 3.6-1.9 4.1-0.1 0.9 3 3.1 2.9 1.5 2-4.7 2.2 7.2 0.9 0.5 3.5 1.8 1.5 2.7-1 0.8-1.6-1.9-3-0.6-2.4-2.5-0.5 2.1-2.1-1.5-1.9-4.9 2.6-1.7-2.6-1-4.5 2.2-3h-4l-2.1-3-1.6-2.6-4.9 1.6 2.1-2 3.9-1 1.1 3 3.4-0.9-1.5-3.6 0.4-6.5-2.8-3-6.1 4h-1.6zm0.2-6 0.8 4 1.5 1 2.2-2h2.4l4.4 2 0.1-4-3-1-5.5-0.5-2.4 0.5h-0.5zm8.3-11.1 4.7-3.4 3.5-0.5-2.5 8.9-2.5-0.9-0.5-2.9 2.4-1.6-2-1.5-3.1 1.9zm6.2 2.1 3.8-0.6 1.2-1.4-0.1 2.4-5.4 1.5 0.5-1.9zm2.4-10.4 3.4 0.4 0.7-0.4 1.4 1.9 3.1 1 1.9 4 2.5-1.1 0.9-1.9 3-0.5 0.2-1-5.5 1h-1.5l-5-3.4 0.4-2.2 4.5-2 3 0.6 0.9 2.4 2.6-0.9 3.6-3.6-3-1.9 1.4-7.1-2.4 5.1-1 2-1.5-0.5-2.1 0.5-5 1-2.5 2-4 4.6z"/>
  <path class="cls-1" d="m82 134.9 3.5 0.5 1 2.5-3.6 0.6-4.9 0.5 1-2 3-0.9v-1.2z"/>
  <path class="cls-1" d="m81.4 140.6 2.7 3.5 4 0.8 0.7 3 3.1-0.4 4.7-3.5-1.7-2-2.9 2 0.1-3.4 1.5 1.4 4.4-1.6 4.1 1.2v5.9l4.4 0.4-3.5 5.6-1.4 1.4-4.5-0.9-1 0.9-2.2-0.4-2-1.5-0.9-1v-3h-3l-4.6 4.5-2.4-1.5 0.9-2.5-1.9-5.5-3.9 1.1-0.5-0.7 4.4-1.8-0.6-2h2z"/>
  <path class="cls-1" d="m95.5 153.5 3.1-2.5h2.9v1l-3.5 1-2.5 0.5z"/>
  <path class="cls-1" d="m105 134.6 2-1.1 2.5 2.5-4.5 1v-1.9-0.5z"/>
  <path class="cls-1" d="m118.9 33.5 0.7-2.9 1.4-0.6 0.9 4.6-6.3-0.1 3.3-1z"/>
  <polygon class="cls-1" points="106.1 40 111 39.9 116 41.5 117 45 114 43.4 112 41 110.5 43.6 106.9 43"/>
  <polyline class="cls-1" points="109 43.4 111 42.9 111 45.4 109.1 45.4 109 43.5"/>
  <path class="cls-1" d="m100.9 43.5 1.6 3.5h-1.9l-0.6-2 0.9-1.5z"/>
  <polygon class="cls-1" points="101.9 48.6 104 49 104.6 51 101.4 51.4"/>
  <polygon class="cls-1" points="42.9 124.4 44.9 123 47.4 123.4 47 125 43.9 126.5"/>
  <path class="cls-1" d="m108 52 7-2 0.4-1 2.6 0.5 0.5 1.5-1 1-3.5-1.4 1.9 3.8-4.4 0.6-1.6-1.5-1.9 0.9-2.4-1.9"/>
  <polygon class="cls-1" points="105.6 59 107 63 111.9 57.5 114 57 114 61 115 57.4 117.5 56.6 116 58 116 61.9 114.4 65.4 111 66.5 109 65 106.1 66 104.1 65.4"/>
  <path class="cls-1" d="m118.5 50 0.5 1 4 1 1.9 3.5-2.9 1-1-2.1-1.4-3.4h-1.6l0.5-1z"/>
  <path class="cls-1" d="m39 54.5 1.1-1 4.4 2 2.1-1.9 2.4-0.1 1.1 1.5 2.3-3.1 2.6 2.1-2.4 2-6.7 1-3.9-1-3-1v-0.5z"/>
  <path class="cls-1" d="m140.1 125 6.5 1-0.1 5-4.5 2.4-1.1-4.4h-1l-2.9-4h3.1z"/>
  <path class="cls-1" d="m137 123.4 0.9 0.6 1.7-0.1-0.6-4.3-1.9-1.6-2.1 3.4-2.9-2.4-2.5 2-0.5-3-2.6 3.4-1.9-1.4h-3.6l-1.5 2.9 12.1 6.6 3.8 0.9 1.1 2.1 1 3.5 4.4-0.4 0.6-5-3.5 2.4-1.9-1.5 1.3-2-1.9-3.6 0.5-2.5z"/>
  <path class="cls-1" d="m52 66 2-1 4.4 1.1 1.6-1.1 0.4-2.4 0.6 3c-0.6 0.5-1.9 1.4-1.9 1.4h-6.1l-1-1z"/>
  <path class="cls-1" d="m51 63 2.1 2-1.1 1.1-2-2.1 1-1z"/>
  <path class="cls-1" d="m119.1 111-4.1 0.5-1.4-4.5 0.4-5 2.5 4.4 0.9-1.4 1.7 2v4z"/>
  <path class="cls-1" d="m122.1 109 1.9-1.1 1.5 3.1 1-1.5-1 6.5-2-1.4 2.1 1.3-0.1 5.1-4.4-2.4-1.1-6.6 2.1-3z"/>
  <polygon class="cls-1" points="42.4 111.1 43.6 108.5 50 110 43.9 111"/>
</svg>
