<svg xmlns="http://www.w3.org/2000/svg" viewBox="0 0 144.7 150">
<!-- SVG created with Arrow, by QuiverAI (https://quiver.ai) -->
  <style type="text/css">.cls-0 {fill:#1E292F;}
.cls-1 {fill:#1B282D;}
.cls-2 {fill:#FFFFFF;}</style>
  <path class="cls-0" d="m114.6 7.3h-84.8c-12.8 0-23.3 10.1-23.3 22.7v89.5c0 12.6 10.5 23.2 23.3 23.2h84.8c12.8 0 24-9 24-23.2v-89.5c0-12.6-11.2-22.7-24-22.7z"/>
  <path class="cls-1" d="m18.2 19.9-5.5-0.3 1.2 5.4 4.6-2.3 0.3-1.2-0.6-1.6z"/>
  <path class="cls-1" d="m20.9 22.4-3.9 0.2 1.9 3 2 0.4 0.7-1.5-0.7-2.1z"/>
  <path class="cls-1" d="m17.9 30.3-4.2 1 1.4 1.7-3 0.9-4.8-4.5-0.3 9.6 2.4 1.9 2.9-2.6 1.6 3.6h1.4l4.4-2-3.3-2.3v-1.8h3.6l-0.4-3.8 1.3 0.4-0.5-1.3-2.5-0.8z"/>
  <path class="cls-1" d="m24.7 26 1.7 4.7 3.6-1.1-3.4-3.2-1.9-0.4z"/>
  <path class="cls-1" d="m26 31.5-1.9 2.2-1.6-0.9-1.9 1.1 1 1.9-3.7-0.4-1.3 1 1.5 3.4 1.5-0.2 0.8-2.3 4.6 0.3 0.8-1 0.8-3.8h4l-0.6 2.1 2.2 0.5 0.9-2.4-2.1-1.9-3.1-0.4-1.9 0.8z"/>
  <path class="cls-1" d="m33 24.9-0.4 2 1.3 0.8 0.9-2.1-0.9-1.1-0.9 0.4z"/>
  <path class="cls-1" d="m30.9 27.7-2.1 1.9 1.2 1.1 1.3-1.1 0.1-1.3-0.5-0.6z"/>
  <path class="cls-1" d="m33.1 30.5-0.5 1.9 1.3 1.5 1.3-1.1v-2.7l-2.1 0.4z"/>
  <path class="cls-1" d="m34.2 16 1.2 3 1.7-2.6-1.2-0.6-1.7 0.2z"/>
  <path class="cls-1" d="m38.9 19.9-0.9 1.4 1.9 2.1 3.7-4.9-4.7 1.4z"/>
  <path class="cls-1" d="m50.2 23.5-3.9 1.7-2.9 1.4 0.2 1.9 2 1.2-0.2 1.8-2.4 2.4-1.3-1.3-1.4 2.1 0.4 1.1 2.5-0.4h2l1.7 1.2 3.9-0.2 0.8-4.9-3.1-4.9 1.9-2.1-0.2-1z"/>
  <path class="cls-1" d="m51.3 15.8v2.7l1.5 0.5 1-0.9v-1.5l-1.5-1-1 0.2z"/>
  <path class="cls-1" d="m52.1 9.2-1.3 4.7h1.1l0.4-4.3-0.2-0.4z"/>
  <path class="cls-1" d="m62.3 12.8-0.8 2.1 0.8 0.9 3.6 0.4 1.3-0.8v-0.9l-2.8-1.7h-2.1z"/>
  <path class="cls-1" d="m69.3 14.5 0.3 1.9 2.4 0.2v-0.8l-1.7-0.9-1-0.4z"/>
  <path class="cls-1" d="m69.6 17.4 0.8 1.1 1.8-0.8-0.2-0.6-2.4 0.3z"/>
  <path class="cls-1" d="m71 19-0.9 1.3 0.9 0.4 0.8-0.7-0.2-0.8-0.6-0.2z"/>
  <path class="cls-1" d="m77.9 20.5-1.9 2.7-1.1 0.9-3.9 0.6-0.9-1.7-0.8 0.2-4.1 2.8-7.6 1.3-1.7 0.2-0.7-1.1h-3.9l1.3 4.1 2.6 0.8 4.5-0.8-0.3 1.7 6 0.6 1.2 1.8 0.3 2.7-0.7 0.6-2.2-1.9-4-3.6 0.5 2.3 1.7 0.7-0.1 1.5 3.1 1.8 4.3 0.7-1.2-5.1 1.7-2.3h2.5l0.9-2.6 2.1 0.3 0.8 1 3.6-1 2.6 0.8 1.5-1.7-0.9-1.5 2.6-3.2h1.1l1.4 1.7v-1.7l-3.4-2.4-2.6 2-0.8-1.7-3.5-1.5zm0.3 4.9 0.5-1.3 2.5-0.4 1.5 2.3-0.9 0.9-3.3 0.8-0.7-1.1 0.4-1.2z"/>
  <path class="cls-1" d="m82 14.3-1.6 2.3 1.6 0.2-0.2 1.1 1.7 1.3 2.2-1.5 2.1 1.9h1.6l1.8 2.6 1.7-0.5-1.9-2.7h1l-0.8-1.4-1.9-1.8h-3.6l-2-1.5h-1.7z"/>
  <path class="cls-1" d="m94 12.6-0.7 2.6 3 1.7 1.6-0.3-1.4-3.1-2.5-0.9z"/>
  <path class="cls-1" d="m122.3 16.2-0.2 2.8 4 0.9-0.6 1.8 4.7-1.2-1.7-1.5v-1.6l-3.3-1.2h-2.9z"/>
  <path class="cls-1" d="m124.4 21.9-1.4 2-2.2-0.5-0.7 1.5 3.2 0.3 2.2-2.2-1.1-1.1z"/>
  <path class="cls-1" d="m120.4 25-0.3 2.3h1.3l0.4-1.6-1.4-0.7z"/>
  <path class="cls-1" d="m102.1 26-0.7 4-2.1-0.6-0.4 2.5 1.3 0.9 2.3-0.6 0.8 1 1.9-0.2 3.5-0.8v-1.7l-4.9-0.4v-3.5l-1.7-0.6z"/>
  <path class="cls-1" d="m110.2 32.6v2.1l-3.7-0.2 2.6 1.5 4.7-0.4-1.3-1.9 1.9-1.7-4.2 0.6z"/>
  <path class="cls-1" d="m117.6 33-0.2 1.5 1.1 1.1 1.6-1.1-0.4-1.3-1.2-0.8-0.9 0.6z"/>
  <path class="cls-1" d="m113.6 38.1 2.3 1.1 1.1 0.8h2.7v-0.6l-2.9-0.2v-2.2l-2 0.3-1.2 0.8z"/>
  <path class="cls-1" d="m125.4 35.4-2.5 2.2 2.1 0.3 2.4-0.3-0.4-2.2h-1.6z"/>
  <path class="cls-1" d="m86.1 29.4-1.5 2.6 0.9 0.8-0.2 1.7-1.8 0.2-1.5-1.3-1.2 0.5 2.7 1.5 3.5-0.5 1-3 2.5 3.7 3.3 0.8 1-0.4 0.9 4.9 1.7 1.1v2.8l-2.4 1.9v1.2l1.1 0.6 0.9-1.4 6.6-1.2 3-2.2h1l1.1 0.6v4l-1.9 1.3h4.9l1.4-0.4 0.9 1.1 3-2.4h1.2l1.5 2.1 0.7 0.3v0.8l-2.4 0.2-2.1-1-2.2 1.6h3.6l0.3 1.8-2.5 0.6-1.1 2.1h-0.6l0.3-3.4-1.6 3.9 1.5 2.1 4-3-1.1 7.5-1.7 0.8 0.6 0.7 0.6 1-2.9-1-2.5 0.8-1.1 2.5h-2.3l-1.3-3.3-5.3 0.4-1.7-1.9 3.6-1.9 0.3-2.6-4.6-0.6-1.7-2-1.5 0.3-1.5-2.4h-1.7l-2.5 0.9-1.5-0.9 1.2-3.2 1.2-2.5 3.1 0.4-0.4-2.9 1.5-3.7 0.4-4.7-3.2-2.1-3.4-5.9-2.1-0.3z"/>
  <path class="cls-1" d="m98.3 35.4v1.9l1.9 1 1.2-1.3-0.4-1-2.7-0.6z"/>
  <path class="cls-1" d="m115.1 42v1.7l1.7 1.3 1.9 0.3 0.6-2.5h2.1v-0.8l-2.1-1.1-3.3 0.1-0.9 1z"/>
  <path class="cls-1" d="m122.9 38.3-0.4 2.2 2.2 3.2 1.4-2.8h-1.4l-0.3-2.6h-1.5z"/>
  <path class="cls-1" d="m126.9 46.1 0.1 2.4 5.1 1.1 1.1-1.7-1.1-2.3-2.6 0.5-1-0.5-1.6 0.5z"/>
  <path class="cls-1" d="m7.8 43.3-0.9 0.8v2.8l1.8 1.7 1-1.5 0.4-3.6-0.8-1.1-1.5 0.9z"/>
  <path class="cls-1" d="m35.9 40.5 0.4 2.3h0.8l-0.4-2.3h-0.8z"/>
  <path class="cls-1" d="m41.5 38.5-0.8 3.5h1.9l0.9-2-0.9-1.5h-1.1z"/>
  <path class="cls-1" d="m19.3 42.4 1.9 0.4-0.4 2.2 0.6 0.3-3.3 1.1-0.7-1.1-3.5 0.3-2 4.7 1.3 1.2 2.1 0.4v2.1h-3.2l-1.5 0.9 1.9 1.1 2.4 0.4 1.9-2.4 1 2.4-1.8 5.6-3.7 0.7 1.6 0.8h1.2l-1.4 1.9-1.4 1.3 2 0.2 1.2 2.3-3.2 2.8 0.9 2.8 4.6 0.1 0.7-7.2-1.7-1 1-3 3.6-0.6 0.2-3-1-3-2.9-0.7 0.2-2.4 1.7-2.1 1.6-0.4 0.2-8 3.1-0.2v-0.9l-4.3-0.3-0.9 0.3z"/>
  <path class="cls-1" d="m24.9 44.5 3 2.2 0.5-0.8-0.1-1.8-1.2-0.2-2.2 0.6z"/>
  <path class="cls-1" d="m24.9 49-0.2 2.5 1.1-0.8v-1.7h-0.9z"/>
  <path class="cls-1" d="m24.3 54-0.6 1.6 1.5-1.6h-0.9z"/>
  <path class="cls-1" d="m35.4 56-2.1 1.5v3.6l4.5 0.9 1.4-2.3-3.3-0.1v-3.2h2.1v-0.8l-0.9-0.4-1.7 0.8z"/>
  <path class="cls-1" d="m26.4 60.7-0.4 1.3h1.1l0.5-0.9-1.2-0.4z"/>
  <path class="cls-1" d="m27.9 63.7v3.6l1.2 2.1 1.3 0.6h2.2l-0.4-6.5-1.3-1.1-3 1.3z"/>
  <path class="cls-1" d="m22.1 70-0.5 3.9 2.7 1-1.2 3 1.2 3 2.5-1.9-1.9-3.2 4.7-2.1 1.8 0.2-2.6 1-0.7 3 1.5-0.6 1.4-3.4 3-1.1-3.4-1.9-4.8 0.4-0.8-1.9-2.9 0.6z"/>
  <path class="cls-1" d="m13.9 106.3-3.3 8 2.2 3.7 2.7 0.9 2.4-1.4 0.6-1.9-0.8-1.7 0.2-4.9-1.9-3.1-2.1 0.4z"/>
  <path class="cls-1" d="m24.5 108.7-0.2 2.9 1.5 1.6 0.6-2.3-0.6-1.9-1.3-0.3z"/>
  <path class="cls-1" d="m29.3 96.7-1.2 1-0.2 5.3 1.7 0.4 2.1-4.4 2-0.4 3-2.2-0.4-1.5-1.3 0.1 0.4-1.1-3.7 1.9-2.4 0.2v0.7z"/>
  <path class="cls-1" d="m37.5 102.6-2.5 6.4 1.3-1.1 3.7-0.9-1.1-3.6-1.4-0.8z"/>
  <path class="cls-1" d="m29.6 107.5 0.8 1.7-0.3 4.9-3.5 0.2 2.2 3 2.9 0.2 1.4-0.8 2.5-0.3 0.7 1.1h1.7l5-1.9-5.4-1.7-1.7-2.3-1.7-2 0.4-1.7-1.1-2.3-1.3-0.2-2.6 2.1z"/>
  <path class="cls-1" d="m45 102.4v1.5l2.1 0.1-0.2-1-1.3-0.6h-0.6z"/>
  <path class="cls-1" d="m51.5 110.4-1.9 2 2.5 0.2 0.5 1.7 2.4-0.6 0.5-2.1-2.9-1.6-1.1 0.4z"/>
  <path class="cls-1" d="m44 119-6.4 1.5v4.5h2v-1.8l2.3-1.4 2.1-1.8h1.6v0.9l1.1 1.5 1.8 0.2v-3l-2.9-0.7-1.6 0.1z"/>
  <path class="cls-1" d="m27.1 120.1v2.5l0.8 0.4 0.5-0.4v-2.1l-1.3-0.4z"/>
  <path class="cls-1" d="m18.1 119.4 1 3.2-2.7 1.3 1.7 1.7 1.9 3.8 2.9-1.9-0.5-7.9-1.4-0.2h-2.9z"/>
  <path class="cls-1" d="m10.1 124.5-1.4 2.7 1.4 3.1 5.9 6.9 8.3 2.2-2.4-2.8 2.8-1.7v-1.9l-3.3 0.3-1.2-2.4-2.4-0.7-2.3-3.2-2 0.5-1.2-3.4-1.7-0.6-0.5 1z"/>
  <path class="cls-1" d="m27.9 128.1-0.3 2.2 3.4 0.2 0.7-0.9v-0.9h-1.6l-1.8-0.8-0.4 0.2z"/>
  <path class="cls-1" d="m35.2 132.4-2.3 2.5 0.4 1.3 4 0.6 1.6-1.4-0.5-1.5-2.1-2.6-1.1 1.1z"/>
  <path class="cls-1" d="m40.3 128.5v4.5l-1.1 2.4 2.1 0.8 3.1-0.4 3.3 0.8 2.5-0.4 3.8-2.9 1.2-0.3 1.1 1.5 4.3 2.1 1.3-0.4 0.2-2.3-3.2-1.9-0.4-3.3-3 0.7-1.5-1.9-1.7 0.4-2.1 3h-2.2l-2.6 0.4-0.2-4.1-2.6-0.3-2.3 1.6z"/>
  <path class="cls-1" d="m61.5 129-0.9 1.5 1.9 1.1 1.5 3.3 2.2 1.3 2.3-0.8 1.6 2.1v-2.6l-0.8-1.4 0.3-0.2 3.8 1.7 2.1-1.1v-0.6h-1.8l-0.6-0.9h-3.8l-1.5-2.4-4.1-1.9-2.2 0.9z"/>
  <path class="cls-1" d="m79.9 129.4-3.3 5.1 1.2 1.7 3-0.8 4.9 1.2 5-0.8 3.7 0.8 9.4-0.8 1 0.8v-1.6l-2.7-2.6 2.3 1.1 3.6 3.1 4.9-0.4 1.9-1.3-0.4-1.6-3.8-0.9-1.5 2.5-1.5-2.1-4.3 0.2-1.2-1.4 0.4-0.3 3.6-0.8-0.2-2.6h-2.6l-1.2-1.5-2.8-0.8-4.9-3.8-2.8 2.7-1.7 0.5-1.1 1.9 0.5 1h4l-0.4 5.4-1.3 0.2-3-1.8-2.9-0.8-1.7 0.7-2-1.3-0.6-1.6-1-0.6-0.5 1.3z"/>
  <path class="cls-1" d="m123.7 125-1.6 2.9 0.4 2.6 2.7 1.5 2.6-1.8-1.9-3.2-0.4-1.4-1.8-0.6z"/>
  <path class="cls-1" d="m130.6 124.5-0.2 2.4 3.4 1 0.6-1-0.8-1.9-1.5-0.5h-1.5z"/>
  <path class="cls-1" d="m54.4 124.5-1.3 1.1 0.9 2.5 2.9-2.1-0.2-1-1.2-1.1-1.1 0.6z"/>
  <path class="cls-1" d="m54.4 121.8v2.7l3-0.4 2-0.6v-2.6l-1.6-0.5-1.3 1.4h-2.1z"/>
  <path class="cls-1" d="m61.9 122-1.9 1 0.2 2.6 2.9-1.1-1.2-2.5z"/>
  <path class="cls-1" d="m63 121.3 0.1 2.2 1.3 2.1 2.2-0.6-0.4-1.5-0.8-1.7v-0.9l-2.4 0.4z"/>
  <path class="cls-1" d="m63.7 125.6-1.8 1.6h1.8l0.3-0.8-0.3-0.8z"/>
  <path class="cls-1" d="m65.4 126.9v1l1.8 0.2-0.3-0.9-1.5-0.3z"/>
  <path class="cls-1" d="m47.5 131.3 1.2 1.1 3.2-0.8-0.3-0.7h-2.5l-1.6 0.4z"/>
  <path class="cls-1" d="m61.5 27.3"/>
  <path class="cls-1" d="m9.7 53.5h-2.7v25.3l1.7-0.9 0.4-5.1 0.6-19.3z"/>
  <path class="cls-1" d="m8.2 78.9v24l2.8-4.3h1.3l2 3 3.4 0.3 1.4 2.1 2.1 0.9 0.7 2.1 2.6 0.9-0.4-3.9-2.5-3.3h-2.7l-3.4-5.1-5.4 3-1.2-3.7 0.2-5.9 1.5-0.9 1.3 0.5 0.8 1.6 4.7 0.3-1-2.4-2.7 0.4 0.6-3.6 0.6-2.1h-3.3l-0.6-2.8 1.3-2.5-1.7 1.3-2.4 0.1z"/>
  <path class="cls-1" d="m14.1 80.9 1.9 1.9 0.8-0.8v-2h-0.8l-1.9 0.9z"/>
  <path class="cls-1" d="m62.1 104.9-0.6 1.4 1.6 1.2 0.9-0.5-0.6-3-1.3 0.9z"/>
  <path class="cls-1" d="m63.7 98.6-0.6 3.3 3.1 1.1 0.4 3.3-2.2 2.4-2.3 1.7-1.1 1.2 0.5 0.8 1.4-0.4 0.2 3 1.3 1.7 0.6 4.2 3 0.9 1.3-0.9 2.3-1.5-0.6-5.9-1.7-4.5-3.4 1.9v4.1h-2.5v-2.6l2-2.4 0.8-2.8 1-0.2-1-8-1.8-0.9-0.7 0.5z"/>
  <path class="cls-2" d="m85.9 56.7c0.6-2.1 3.1-9.7-3.4-18.6-2.4-3-3.8-5.1-5.9-4.2s-3.5 3.2-2.9 6.1c0.7 3.5 2.8 6.9 2.9 11.2-2.2-0.4-5.5 0-5.5 0s-3.1-2.9-6.1-6.3c-1.4-1.7-1.6-4.4-2.3-5.3-1.3-1.5-6.6-5.8-7.9-4.9-0.8 0.7-0.7 5.8 1.7 10.7 1.1 2.2 5.4 9 5.6 9.1s-6.6 5.1-7.6 6.6-1 2.6-1 2.6c-1.4 1.5-9.9 9.1-11.6 10.8-2 2.2-0.2 4.4-0.2 4.4 0 0.6-2.6 7.9 2.9 8 1.3 2.5 4.1 3.6 9.4 2 3.2-0.9 4.5-2 4.5-2h13.5c3.7 0 7.9-4.1 9.6-6.9-1.2 5-4.7 9.9-11.5 10.2h-3.7l4.8 26.6h32.4s-10.6-43.6-11.5-46.1c-1.4-3.4-3.7-7.2-3.7-7.2 0-0.6 0.6-3 0.2-3.6-1.2-2-2.7-3.2-2.7-3.2zm-14.1 13.9c-2.4 0-2.7-1.4-6.6-1 0 0 1.7-3.2 4.9-3.4l6.4 0.1c0 0.1-0.9 4.1-4.7 4.3z"/>
  <path class="cls-1" d="m53.1 38.8-2.9 0.8 0.8 2.4-3 1.5v1.5h2.4l0.2 2.9-2.1 0.7 0.9 1h1l-0.3 3.6-1.7 4.7-3.8 1.5-2.9-1.7-1.5 0.4-2.2 3.5-1.3 1.3-0.4 3.1-2.3 1.9 5.4-1 0.5 1.4 3.7-0.6-0.6-2.7 3.5-0.5 2-1h0.9l2.9-1.1 1.5-3 1.2-0.8-1.5-6.6 0.9-3-1.3-10.2z"/>
  <path class="cls-1" d="m28.1 52.7 2.9-0.7 1.6 1.5h-5.5l1-0.8z"/>
  <path class="cls-1" d="m44.8 45.6-0.4 3 1 0.6 0.2-3.6h-0.8z"/>
  <path class="cls-1" d="m117.4 43.3"/>
  <path class="cls-1" d="m130.8 52.4-2.8 3.6 5.6 0.4 1.5 2.6 1.8 0.2 0.2-13.2-2.2 7.7h-2l-2.1-1.3z"/>
  <path class="cls-1" d="m134.5 59.6-0.1 1.6h1.3l0.4-1.2-1.6-0.4z"/>
  <path class="cls-1" d="m125.9 62.9-2.3 1.4 1.9 7 1.9 1.1-1.9 1.5 0.2 0.6h2.1l0.9 1.9h3.4l2.3-0.8v3.4l-0.6 1.4-3.2 0.5-0.2 0.4-0.2-2.5-1.7-1.3-2.6 0.4-1.5 2.1-1.9 1.3v3.2h2.2l3.3-0.6 0.4 5.1 3.4-0.2 0.9-2.8 3-1.5 0.6 1.5-0.2 1.5-2.7 2.7 1 1.4v3.3h-1.7l-0.9-3.3-0.8 0.6-3.2-0.6-1.9 2.9 2.1 2.1 2.6-1-0.2 8.3h1l3-4.3 0.9 4.9 1 1.1 1.3-0.6-0.2-40.5h-2.4l-0.6 1.5-1.7 1.3-1.3-1.3v0.7 0.2h-0.2-0.4-0.4v0.4l4 0.4v1.7h-1.7l-3.6-1.5-0.6-1-0.1-0.2 0.1-0.7-0.7-0.6-1-1.7-0.9-0.8z"/>
  <path class="cls-1" d="m128.5 73.2 2.1-0.8 2.6 1.3-2.6 0.8-2.1-1.3z"/>
  <path class="cls-1" d="m117.6 101.3-0.6 2.7 5-0.6-1.2-1.5-3.2-0.6z"/>
  <path class="cls-1" d="m125.5 104.9-0.5 4.5 3.5 1.7-1.1 3.4h2.8l0.6-1-2.3-7.6-3-1z"/>
  <path class="cls-1" d="m132.1 113.5-0.7 1v2.2l1.5 1.2 1.5-3-1-1.4h-1.3z"/>
  <path class="cls-1" d="m111.6 71.5-3.2 2.4-1.6-2.4-2 0.4-1 3.3-0.5-0.9-4.4 2.4h3.2l1.9-0.4-2.6 8.2 1.9-1.5 1.7-6.3 3.7-0.7 0.4 4.3 2.6 0.1 1.4 0.1 0.9 3 2 0.6 1.6-2.1-1.1-5 3.6-1.8 0.3-3.3-1.3-0.4-2.6 0.5-2.5-0.5h-2.4z"/>
  <path class="cls-1" d="m105.9 98.3-1.5 0.7 4.7 18.5 2.3-0.6-2.3-3.4 1.5-1.9 1.7-4.6 1.1 0.9v4.8l3.1-2.3-2.5-4.8h2l0.5-3-3.4 1.4 0.9-3.3-1.5-3-1.9-1.3-0.4-3.4-1.5-0.4v4l-2.8 1.1v0.6z"/>
  <path class="cls-1" d="m120.1 107.5-2.5 1.5v4.5l2.1 1.5v-3l2.3-2.6-1.2-1.5-0.7-0.4z"/>
  <path class="cls-1" d="m125 115.2v2.3l2.8 0.4-0.4-2.9-2.4 0.2z"/>
  <path class="cls-1" d="m115.4 120.5v1.3l2.2 1.7v-3.5l-2.2 0.5z"/>
  <path class="cls-1" d="m117.6 123.9 0.4 1.1 1.3-0.5-1.7-0.6z"/>
  <path class="cls-1" d="m101 66-0.4 1.3 2.2 0.6 0.5 2.1-2.3 0.9-2.3 3.2 5.3-2.6 0.4-2.7-1.6-1.7-1.8-1.1z"/>
  <path class="cls-1" d="m93.5 60 0.5 2 3-0.6-2 3.6 4.3 0.4-0.9-1.9-1.4-1.5h0.8 0.9l-1.8-2h-3.4z"/>
  <path class="cls-1" d="m107.2 58.6-2.8 0.8 0.4 2.2 1.7 0.4-0.4-1.3 2.3-0.7-1.2-1.4z"/>
  <polygon class="cls-1" points="98.3 47.4 98.9 49 101.9 49.2"/>
  <path class="cls-1" d="m35.9 129.4-0.3 1.1 1.9-0.5 0.1-1.5-1.7 0.9z"/>
  <path class="cls-1" d="m105.7 87.7-1.3 4.7 3.2 1-0.8-3.8 1.9-1.5 1.5-1.2 0.4-2-4.1 2-0.8 0.8z"/>
  <path class="cls-1" d="m113.6 85.4-1.1 0.2v2.5l1.1-0.8v-1.9z"/>
  <path class="cls-1" d="m119.3 90.2-1.1 1.4 3.2 1 0.6-0.6-1.2-1.8 1.2-1.4 0.9-1.1 0.7-2.3 4.9 0.6-0.7 1.7-1.3 0.4 2 0.4-0.7-0.8 2.8 0.8h-9.2l1.7-3.6-1.7 1.5 1.1 0.5h0.4l-1.5 1.9-2.1 1.4z"/>
  <path class="cls-1" d="m122 57.7-1-0.2-0.6 0.2 0.1 0.5 2.6 0.3-1.1-0.8z"/>
  <polygon class="cls-1" points="48.7 33 50.8 32 50.8 33"/>
  <path class="cls-1" d="m46.7 113.5v2.1l4.6 1.9 1-0.6v-2l-5.6-1.4z"/>
  <polygon class="cls-1" points="124.4 27.9 124.4 29.6 126.1 29.4 125.9 28.5"/>
  <polygon class="cls-1" points="128.5 36.4 128.9 37 128.5 37.6"/>
  <polygon class="cls-1" points="127.4 43.3 126.9 44.4 127.8 44.5 128.5 43"/>
  <polygon class="cls-1" points="54.4 95.4 54 99 53.1 99.6 51.6 99 51 96.4"/>
  <polyline class="cls-1" points="43 93 44.4 95 49.6 95.4 52.1 94.7 47.1 94.3 44 94 43.6 92.2"/>
  <polygon class="cls-1" points="28.1 86.9 28.8 87.9 29.1 90.7 30.6 92.6 34.6 94.3 36.3 92.4 37.5 92 41.9 96.6 41.5 98.6 43.6 97.3 45 96.6 46.7 97 47.5 98.6 48.4 98.6 46.9 95.6 43.6 95 43 92.2 35.9 92 35 90 34 88.5 31.7 88.1"/>
  <path class="cls-1" d="m37.3 84.5c-1.4 0-2.3 0.4-2.6 0.9s0 2.7 0 2.7l-1 0.4 3.8-0.4 0.9-2.7-1.1-0.9z"/>
  <polygon class="cls-1" points="124.4 99.6 122 101.3 125 101.3"/>
  <path class="cls-1" d="m132.4 119.4-0.6 1.3 0.7 1.3 0.7-2-0.8-0.6z"/>
</svg>
